<?xml version="1.0" encoding="UTF-8"?>
<svg version="1.1" xmlns="http://www.w3.org/2000/svg" width="320" height="320">
<path d="M0 0 C105.6 0 211.2 0 320 0 C320 105.6 320 211.2 320 320 C214.4 320 108.8 320 0 320 C0 214.4 0 108.8 0 0 Z " fill="#FEFDFD" transform="translate(0,0)"/>
<path d="M0 0 C0.93996826 0.51965332 0.93996826 0.51965332 1.89892578 1.04980469 C18.78886503 10.45174184 34.81722631 22.92414933 47 38 C48.11955078 39.34578125 48.11955078 39.34578125 49.26171875 40.71875 C68.27746306 64.36155925 84.14767187 96.91674025 81 128 C78.92080216 141.69471652 69.44563448 154.4934001 61 165 C60.24460937 165.97066406 59.48921875 166.94132813 58.7109375 167.94140625 C54.21933193 173.61379472 49.64008962 178.48414935 44 183 C42.99324219 183.84304687 41.98648438 184.68609375 40.94921875 185.5546875 C28.34812509 195.95825556 9.02962185 210 -8 210 C-6.75292196 206.03146595 -5.26435554 202.2497808 -3.58862305 198.44384766 C0.85289266 188.24677257 3.69336146 177.8636283 6 167 C6.18763916 166.1747583 6.37527832 165.3495166 6.56860352 164.49926758 C8.23846672 156.49923316 8.35602806 148.58511898 8.3125 140.4375 C8.31067719 139.73068085 8.30885437 139.02386169 8.30697632 138.29562378 C8.25925288 127.29731366 7.6967183 116.70005203 5 106 C4.74259033 104.9493335 4.74259033 104.9493335 4.47998047 103.87744141 C-4.94091379 66.4548543 -28.93509302 35.60304828 -61.25 14.875 C-83.1589858 1.80879763 -106.80076711 -4.92099405 -132 -8 C-129.11108965 -10.88891035 -125.55332381 -11.6934767 -121.75 -12.9375 C-120.53860352 -13.33618286 -120.53860352 -13.33618286 -119.30273438 -13.74291992 C-79.75099201 -26.46768628 -35.95671285 -20.29211772 0 0 Z " fill="#EC3530" transform="translate(234,23)"/>
<path d="M0 0 C3.75402541 1.2513418 3.92177905 2.24265486 5.8125 5.625 C10.38669645 13.08969931 16.34212385 19.1285903 22.43017578 25.37451172 C23.68592768 26.67479106 24.90924503 28.00636512 26.12109375 29.34765625 C41.96614121 46.53370995 66.97034032 57.93932879 89 64 C89.64259766 64.17805176 90.28519531 64.35610352 90.94726562 64.53955078 C99.25422834 66.8154037 107.35687039 68.70392441 116 69 C117.79244141 69.11214844 117.79244141 69.11214844 119.62109375 69.2265625 C159.76923539 71.02207929 199.51922987 54.66363058 229 28 C237.16524792 20.48410344 243.92808878 11.97701548 249.87109375 2.6171875 C250.24363281 2.08351562 250.61617187 1.54984375 251 1 C251.33 1 251.66 1 252 1 C251.56936156 9.95727956 249.31200007 18.3873585 247 27 C246.78601563 27.886875 246.57203125 28.77375 246.3515625 29.6875 C241.27511314 49.20216246 228.22203375 67.18642515 215 82 C214.3503125 82.77085937 213.700625 83.54171875 213.03125 84.3359375 C209.05684542 89.05102657 204.77876441 93.10678292 200 97 C199.05253906 97.7734375 198.10507812 98.546875 197.12890625 99.34375 C162.6269505 126.95824879 120.72810108 138.13133656 77 135 C69.12607071 134.10386776 61.55944543 132.35063486 54 130 C52.83936035 129.63914307 52.83936035 129.63914307 51.65527344 129.27099609 C33.2649852 123.3385167 21.09206054 114.31076846 12 97 C-3.20953736 66.44024097 -8.79525363 33.2963173 0 0 Z " fill="#F2B01D" transform="translate(62,181)"/>
<path d="M0 0 C1.44415283 0.00845947 1.44415283 0.00845947 2.91748047 0.01708984 C24.04585302 0.36801331 44.91327669 5.58149145 63.6875 15.3125 C64.62722656 15.78429688 65.56695312 16.25609375 66.53515625 16.7421875 C77.36091511 22.37584542 87.02280396 29.7229857 95.6875 38.3125 C95.6875 38.6425 95.6875 38.9725 95.6875 39.3125 C93.92599609 39.45945312 93.92599609 39.45945312 92.12890625 39.609375 C54.41234169 43.0011808 21.88881877 58.05175242 -5.3125 84.3125 C-5.96605469 84.90289062 -6.61960937 85.49328125 -7.29296875 86.1015625 C-27.33691549 104.66958917 -39.14240178 133.03477706 -43.95410156 159.3828125 C-44.26633189 161.06392181 -44.62528696 162.73621997 -44.9921875 164.40625 C-50.68567931 193.41966034 -44.80016697 222.68828387 -33.3125 249.3125 C-32.73035197 250.67312712 -32.1483094 252.03379938 -31.56640625 253.39453125 C-31.15261719 254.35746094 -30.73882812 255.32039062 -30.3125 256.3125 C-34.24144435 254.6902867 -37.07173373 251.99555113 -40.125 249.125 C-40.92719971 248.37645752 -40.92719971 248.37645752 -41.74560547 247.61279297 C-42.80330141 246.6224662 -43.8587165 245.62969672 -44.91162109 244.63427734 C-46.03276076 243.57644357 -47.16498255 242.53035982 -48.30078125 241.48828125 C-75.64553572 215.57928955 -89.14509594 176.16592577 -90.58984375 139.33984375 C-91.6419836 95.19649327 -77.08519943 55.08372247 -46.8125 22.7734375 C-33.38543571 9.55617109 -19.2250725 -0.11932568 0 0 Z " fill="#8D2776" transform="translate(94.3125,26.6875)"/>
<path d="M0 0 C2.97 0.33 5.94 0.66 9 1 C9 1.66 9 2.32 9 3 C10.12019531 3.12117187 11.24039063 3.24234375 12.39453125 3.3671875 C13.86723636 3.53603267 15.33989004 3.70532697 16.8125 3.875 C17.55048828 3.95363281 18.28847656 4.03226563 19.04882812 4.11328125 C22.71506181 4.54460286 24.87951745 4.9196783 28 7 C32.95615627 7.95639807 37.83522447 8.14773533 42.8671875 8.1328125 C43.94747726 8.13424759 43.94747726 8.13424759 45.04959106 8.13571167 C46.55715015 8.13638726 48.06471225 8.13457671 49.57226562 8.13037109 C51.889388 8.12496644 54.20632069 8.13036111 56.5234375 8.13671875 C57.99218793 8.13605878 59.46093824 8.13477931 60.9296875 8.1328125 C61.62440155 8.13483673 62.3191156 8.13686096 63.03488159 8.13894653 C66.29807529 8.40213142 66.29807529 8.40213142 69 7 C71.52204196 6.61976281 74.02989672 6.29073831 76.5625 6 C77.25408203 5.9175 77.94566406 5.835 78.65820312 5.75 C80.05727243 5.58310264 81.45652591 5.41774209 82.85595703 5.25390625 C86.23949648 4.85321381 89.61954774 4.42588375 93 4 C89.0735765 7.9264235 82.34826411 7.75113851 77 8.625 C76.31838806 8.73772247 75.63677612 8.85044495 74.93450928 8.96658325 C64.20865682 10.71830712 53.86694791 11.79698131 43 11 C41.68902344 10.90460938 40.37804687 10.80921875 39.02734375 10.7109375 C25.61849121 9.3634469 12.53980288 5.88767317 0 1 C0 0.67 0 0.34 0 0 Z " fill="#FDF0BD" transform="translate(135,240)"/>
<path d="M0 0 C0.33 0 0.66 0 1 0 C0.99214478 1.48826294 0.99214478 1.48826294 0.98413086 3.0065918 C0.96578532 6.7508857 0.95446205 10.49517579 0.94506836 14.23950195 C0.94009472 15.84823275 0.93331343 17.45695916 0.92456055 19.06567383 C0.29089403 35.26409282 0.29089403 35.26409282 3 51 C3.03954234 53.33299825 3.04401732 55.66708189 3 58 C2.67 58 2.34 58 2 58 C-1.51808194 46.39624233 -2.18839957 34.75278411 -2.25 22.6875 C-2.25918457 21.6982251 -2.26836914 20.7089502 -2.27783203 19.68969727 C-2.24968023 12.93720593 -1.4177587 6.59871403 0 0 Z " fill="#EDBF55" transform="translate(60,189)"/>
<path d="M0 0 C-1 1 -1 1 -4.5625 1.0625 C-5.696875 1.041875 -6.83125 1.02125 -8 1 C-8 1.66 -8 2.32 -8 3 C-9.24716797 3.09087891 -9.24716797 3.09087891 -10.51953125 3.18359375 C-12.14955078 3.30927734 -12.14955078 3.30927734 -13.8125 3.4375 C-14.89144531 3.51871094 -15.97039062 3.59992188 -17.08203125 3.68359375 C-20.05989905 3.90212461 -20.05989905 3.90212461 -23 5 C-31.51991273 5.44786827 -39.966241 5.06976688 -48.4375 4.125 C-49.17693848 4.04660889 -49.91637695 3.96821777 -50.67822266 3.88745117 C-52.46316218 3.66765283 -54.23465267 3.34332085 -56 3 C-56.33 2.34 -56.66 1.68 -57 1 C-56.12601563 1.0721875 -55.25203125 1.144375 -54.3515625 1.21875 C-39.48325285 2.34088658 -25.28632591 2.59900141 -10.5480957 -0.02050781 C-9.35253052 -0.22885254 -9.35253052 -0.22885254 -8.1328125 -0.44140625 C-7.43043457 -0.57232666 -6.72805664 -0.70324707 -6.00439453 -0.83813477 C-3.78172771 -1.01762662 -2.12025173 -0.65117347 0 0 Z " fill="#EAB33A" transform="translate(220,248)"/>
<path d="M0 0 C-0.78246094 0.20496094 -1.56492188 0.40992188 -2.37109375 0.62109375 C-3.38300781 0.89050781 -4.39492187 1.15992188 -5.4375 1.4375 C-6.44683594 1.70433594 -7.45617187 1.97117187 -8.49609375 2.24609375 C-10.91752001 2.75978077 -10.91752001 2.75978077 -12 4 C-14.6662603 4.08855161 -17.30647114 4.11524673 -19.97265625 4.09765625 C-20.77029892 4.0962413 -21.56794159 4.09482635 -22.38975525 4.09336853 C-24.94737435 4.08775316 -27.50490718 4.07519812 -30.0625 4.0625 C-31.79231645 4.05748698 -33.52213426 4.05292373 -35.25195312 4.04882812 C-39.50133553 4.03777875 -43.75065312 4.02050386 -48 4 C-48 3.67 -48 3.34 -48 3 C-47.30664551 2.98541748 -46.61329102 2.97083496 -45.89892578 2.95581055 C-27.56006647 2.52876424 -27.56006647 2.52876424 -9.43408203 -0.0715332 C-5.99946111 -0.76020085 -3.33349715 -1.28211429 0 0 Z " fill="#FCEDBC" transform="translate(196,313)"/>
<path d="M0 0 C1.47923446 0.14514409 2.95838296 0.29116422 4.4375 0.4375 C5.67306641 0.55931641 5.67306641 0.55931641 6.93359375 0.68359375 C8.61266055 0.85684778 10.29133433 1.0353275 11.96704102 1.23852539 C17.99252558 1.95819685 24.001189 2.30520009 30.0625 2.5625 C31.02349609 2.60568359 31.98449219 2.64886719 32.97460938 2.69335938 C35.31630277 2.79821132 37.65807929 2.90037788 40 3 C37.46766937 5.45636072 36.27716737 5.99084825 32.6875 6.109375 C31.470625 5.99078125 30.25375 5.8721875 29 5.75 C27.783125 5.64171875 26.56625 5.5334375 25.3125 5.421875 C22 5 22 5 20 4.4765625 C15.8823253 3.49539783 11.5290185 3.64629524 7.3125 3.4765625 C3.90189639 2.98588604 2.47853692 2.31743202 0 0 Z " fill="#FFFDEE" transform="translate(129,314)"/>
<path d="M0 0 C0.33 0 0.66 0 1 0 C0.45136137 6.7857936 -0.54267938 13.35009036 -2 20 C-2.33 20 -2.66 20 -3 20 C-3 16.37 -3 12.74 -3 9 C-3.33 9.66 -3.66 10.32 -4 11 C-4.99 10.67 -5.98 10.34 -7 10 C-5.85821872 8.33055479 -4.71147095 6.6645052 -3.5625 5 C-2.92441406 4.071875 -2.28632813 3.14375 -1.62890625 2.1875 C-1.09136719 1.465625 -0.55382812 0.74375 0 0 Z " fill="#E9B642" transform="translate(313,182)"/>
<path d="M0 0 C0.33 0 0.66 0 1 0 C1.10957031 1.01578125 1.21914063 2.0315625 1.33203125 3.078125 C2.29591003 11.58513251 3.65372062 19.7410966 6 28 C2.73144943 25.82096629 2.32336308 24.80092504 1.40625 21.1171875 C0.0616039 14.10951264 -0.1147514 7.11458692 0 0 Z " fill="#FEF7CE" transform="translate(58,224)"/>
<path d="M0 0 C0.33 0.99 0.66 1.98 1 3 C-1.71022544 7.11954267 -5.18206783 9.9630085 -9 13 C-9.66 12.67 -10.32 12.34 -11 12 C-7.37 8.04 -3.74 4.08 0 0 Z " fill="#E9B642" transform="translate(304,195)"/>
<path d="M0 0 C6.33881314 0.62197123 12.67094142 1.28542887 19 2 C19 2.33 19 2.66 19 3 C16.58265458 3.08117951 14.16805051 3.14056926 11.75 3.1875 C11.06808594 3.21263672 10.38617188 3.23777344 9.68359375 3.26367188 C6.40800711 3.31137459 4.34651444 3.21085076 1.515625 1.48828125 C1.01546875 0.99714844 0.5153125 0.50601562 0 0 Z " fill="#FEF9D5" transform="translate(129,314)"/>
<path d="M0 0 C0.66 0 1.32 0 2 0 C2.08078641 2.12438339 2.13909141 4.2496323 2.1875 6.375 C2.22230469 7.55835938 2.25710938 8.74171875 2.29296875 9.9609375 C2.19628906 10.96382812 2.09960938 11.96671875 2 13 C1.01 13.66 0.02 14.32 -1 15 C-0.67 10.05 -0.34 5.1 0 0 Z " fill="#FCF1C7" transform="translate(313,181)"/>
<path d="M0 0 C0 0.66 0 1.32 0 2 C-4.49656104 4.24828052 -8.07872966 4.16682272 -13 4 C-13 3.67 -13 3.34 -13 3 C-11.2092015 2.49689942 -9.41733089 1.99761372 -7.625 1.5 C-6.62726563 1.2215625 -5.62953125 0.943125 -4.6015625 0.65625 C-2 0 -2 0 0 0 Z " fill="#E9B746" transform="translate(234,243)"/>
<path d="M0 0 C0.33 0 0.66 0 1 0 C0.67 3.3 0.34 6.6 0 10 C-0.66 9.01 -1.32 8.02 -2 7 C-2.66 6.67 -3.32 6.34 -4 6 C-2.69593116 3.98079663 -1.36176581 1.98075027 0 0 Z " fill="#E5B952" transform="translate(313,182)"/>
<path d="M0 0 C0.66 0.33 1.32 0.66 2 1 C1 2.5 1 2.5 -1 4 C-3.71846235 4.27345479 -6.25677199 4.13491285 -9 4 C-6.06195683 2.47657021 -3.13439441 1.07229283 0 0 Z " fill="#ECBB4B" transform="translate(243,239)"/>
</svg>
